PathFileType	4	(X/Y/Z)	Patient4_TMGait_0pt6_02_left_40.trc.trc
DataRate	CameraRate	NumFrames	NumMarkers	Units	OrigDataRate	OrigDataStartFrame	OrigNumFrames
78.212290502793	78.212290502793	4	33	mm	78.212290502793	124	       141
Frame#	Time	Sacral			L.Shoulder			Chest			R.Shoulder			Neck			R.ASIS			L.ASIS			R.Thigh.Superior			R.Thigh.Lateral			R.Thigh.Inferior			R.Patella			L.Thigh.Superior			L.Thigh.Lateral			L.Thigh.Inferior			L.Patella			L.Shank.Superior			L.Shank.Lateral			L.Shank.Inferior			R.Shank.Superior			R.Shank.Lateral			R.Shank.Inferior			R.Heel			R.Midfoot.Superior			R.Midfoot.Lateral			R.Toe			L.Heel			L.Midfoot.Lateral			L.Midfoot.Superior			L.Toe			L.Elbow			L.Wrist			R.Elbow			R.Wrist			
		X1	Y1	Z1	X2	Y2	Z2	X3	Y3	Z3	X4	Y4	Z4	X5	Y5	Z5	X6	Y6	Z6	X7	Y7	Z7	X8	Y8	Z8	X9	Y9	Z9	X10	Y10	Z10	X11	Y11	Z11	X12	Y12	Z12	X13	Y13	Z13	X14	Y14	Z14	X15	Y15	Z15	X16	Y16	Z16	X17	Y17	Z17	X18	Y18	Z18	X19	Y19	Z19	X20	Y20	Z20	X21	Y21	Z21	X22	Y22	Z22	X23	Y23	Z23	X24	Y24	Z24	X25	Y25	Z25	X26	Y26	Z26	X27	Y27	Z27	X28	Y28	Z28	X29	Y29	Z29	X30	Y30	Z30	X31	Y31	Z31	X32	Y32	Z32	X33	Y33	Z33	

124	50.372642857143	839.957132677308	1002.576944351909	565.233474209489	1012.147096325701	1430.330091955649	380.886120674132	1131.794543979183	1345.039784365439	520.992388839625	1076.768420203475	1417.778503300229	705.292868135723	1037.427173266333	1481.661948860288	532.630284123549	1072.171784630415	930.430493545847	660.941976451820	1033.957087409201	944.736636651598	387.082865548278	1058.949055805111	717.391316769041	637.863561683683	949.487269655592	630.089933993440	702.710498621480	1003.662608455584	560.274959038802	622.569290380999	979.557152406729	476.439002559226	626.847088248543	1106.519526046122	764.124675219840	413.275826173560	1049.806477724813	631.412777585534	344.952479160989	1159.379477422993	576.155036148060	398.310897969365	1185.460993146374	511.992997163414	398.526093331465	1171.626492511257	439.264541612837	390.918556435168	1106.464653187872	306.600176293076	347.620422901433	1198.973145181560	211.351529863498	399.185603960425	937.757260451667	395.406338925939	635.132724732102	852.962380034280	304.033538162722	699.697345697994	876.966684851310	204.216564618525	633.473732785332	722.555134172054	47.731672595747	606.197098728980	896.926722033923	97.623008434145	635.652573171907	808.401095128614	37.675960463833	676.108243082838	1016.393497761869	40.435786661922	657.510282596341	1117.770697759934	37.615914789215	441.825819734124	1190.369769227792	40.442409042105	360.868688845725	1265.011420969306	111.651819043908	382.096219794782	1396.367958901820	74.898150664114	354.187375577190	850.756549794149	1116.465741033543	279.471099471863	812.797436995883	856.995865601060	286.657703040571	1228.899007155743	1114.065665086142	799.880944177709	1420.382166843018	1219.578138489839	676.796890105449	
125	50.385428571429	841.543039772101	1001.428322398893	561.798836339827	1012.317146101538	1429.281531188668	377.604760004512	1131.977657670264	1344.811624409353	518.282706449418	1075.899554561236	1417.514522873095	702.437522570093	1037.022054951424	1481.087413862001	529.300121014557	1073.438951932546	929.467624690140	658.610574793127	1036.419766062740	943.776889820266	384.707602078220	1059.518879603042	716.214272222662	636.025310582783	949.208925785035	629.610910021831	700.699302751145	1003.239216700712	559.113928704085	621.011661273847	978.277342846683	474.883508742267	625.309338764046	1109.034019460974	762.463624752426	411.815900495667	1051.042650827192	629.986673605692	344.625092710040	1159.897585391846	574.387520084437	398.679567026124	1184.534444721446	509.417283998970	399.782061346718	1170.498737720972	436.453171679896	391.761550580439	1104.188209893128	304.515042941412	348.346607210636	1194.733996193852	208.302119845887	401.034133257507	935.178912968469	394.471679282018	633.924855748569	848.871863826579	304.652922680451	698.784471793606	871.390292319841	204.162733884548	633.134538355500	714.989472048009	49.052622870234	606.496676979256	889.730199419398	97.764187393488	635.886511491142	800.849338512710	38.083018163355	676.273949505990	1008.830691200807	40.044187993060	657.612793940050	1109.661369823270	37.439795549841	443.256648310284	1182.811063346354	38.970114044201	362.643959858453	1259.550469621286	107.437824645194	385.215542809864	1390.207907571616	66.735591512717	357.807945197103	852.057975668787	1114.693419429653	276.480576659236	816.701788526290	854.721975004850	283.776974300074	1225.216738626701	1112.216594925531	799.545466182352	1418.331085012310	1215.822940488549	676.779417518926	
126	50.398214285714	843.035436236637	1000.659621105499	558.204441621058	1012.737478141086	1428.487585381659	374.182585188214	1132.339435636810	1344.790743405504	515.468670906616	1075.272203716409	1417.572510306092	699.435430177063	1036.886065621613	1480.815316238772	525.785583175916	1074.625804791587	928.736737239358	656.099561585116	1038.835093736479	943.219131556881	382.149433300676	1060.206112990806	715.298830986851	634.049729166011	949.172663504888	629.280600441490	698.510932945222	1003.274257341628	558.117120201103	619.355663223574	977.574555020183	473.326871420298	623.788828945111	1111.618221332808	761.410268600642	410.441792252503	1052.718661412407	629.354333445773	343.913886111787	1160.578893263037	573.273431854762	398.997522248126	1183.667172041556	507.388362522847	400.798321560015	1169.413956067256	434.178291290744	392.260241130949	1101.986916578107	303.061604837040	348.300975849705	1190.240934987099	205.734864138315	402.383567859006	933.025736670014	393.635518870402	632.708122289372	845.005258836651	305.553718969393	697.793620456924	866.047390280839	204.314895079844	632.857112932892	707.462135180162	50.800590285845	606.856542856671	882.695365517128	97.941194777318	636.188365045015	793.323570903545	38.650427702032	676.468096820983	1001.276600426788	39.652090249856	657.697296547332	1101.190822566794	37.424307741625	444.115622214323	1174.862942576362	37.852200160421	363.819297644186	1253.459770397535	103.897177447735	387.676740255634	1383.524936599284	59.687794727157	360.745331637944	854.060399647139	1112.878997722630	273.245476858506	821.806557001754	852.341749194077	280.486070505141	1220.790697071553	1110.246972252722	799.410663848637	1416.489962580940	1210.497692799004	677.267042891318	
127	50.411000000000	844.410959455527	1000.350591548581	554.491347423860	1013.415768789691	1428.021341118902	370.655452343905	1132.881053270106	1345.024064110113	512.567807298469	1074.920964082012	1418.007168623462	696.301084383666	1037.041489100809	1480.900040949842	522.123670614139	1075.695870273594	928.319847055895	653.403898629460	1041.139817757430	943.118704248599	379.399448866229	1060.982259896014	714.715804002539	631.924200969411	949.400659526554	629.134520443685	696.167103129509	1003.809734197811	557.345809329223	617.609053657490	977.543186471178	471.796461367130	622.358319068216	1114.151395749813	760.998539416958	409.090135422750	1054.657007744476	629.503767810676	342.774260337486	1161.274957074181	572.778431492608	399.090108742967	1182.739840954315	505.935373747574	401.410371899697	1168.263224944043	432.481866858208	392.346192650277	1099.802550968441	302.228971396162	347.509321332757	1185.561534371184	203.733918884156	403.209972702619	931.359876687290	392.936922143035	631.529217629638	841.423677578460	306.799316255490	696.752471202544	861.004471071833	204.737421125564	632.669735858078	700.016638416708	53.095799968510	607.276839480650	875.878903535205	98.170091743214	636.570179011261	785.843903337542	39.444745399791	676.685390518833	993.726150135572	39.273840816077	657.750900461579	1092.688241052921	37.510176201788	444.482252882762	1166.807513241568	37.076011738766	364.443308190731	1246.902478939492	101.170781549200	389.415527387600	1376.513186072957	54.116776487070	362.897564970470	856.788695598248	1111.111580232518	269.776176385537	828.109155093778	849.970874904608	276.779070650825	1215.602183708746	1108.237240518066	799.378317209565	1414.823710961856	1203.524457433147	678.283929167502	
